<?xml version="1.0" encoding="utf-8"?>
<!-- Generator: Adobe Illustrator 25.0.0, SVG Export Plug-In . SVG Version: 6.00 Build 0)  -->
<svg version="1.1" id="Ebene_2" xmlns="http://www.w3.org/2000/svg" xmlns:xlink="http://www.w3.org/1999/xlink" x="0px" y="0px"
	 viewBox="0 0 216 84" style="enable-background:new 0 0 216 84;" xml:space="preserve">
<style type="text/css">
	.st0{fill:#FF6D22;}
	.st1{fill:#00A9E0;}
	.st2{fill:#935E3A;}
	.st3{fill:#61C250;}
	.st4{fill:#7B868C;}
</style>
<path class="st0" d="M47.5,46.5c1.2-7,6.1-12.5,11.9-16.2c0.1-0.8,0.2-1.6,0.2-2.4c-0.1-4.5-6.4-4.4-9.5-3.9
	c-3.8,0.6-9.5,2.6-10.3,7c-1.5,8.5-5.7,17.3-11.9,23.4c-4-4.7-7.7-10.4-7.5-16.8c0.2-4.1,2.3-6.5,4.3-9.7c0.9-1.4,1.8-3.1,1.5-4.8
	c-0.5-2.4-3.7-3-5.7-3.2c-5.8-0.4-10.7,2.7-14.3,7c-3.8,4.5-6.1,10.4-5.7,16.4c0.5,6.1,3.5,11.8,7.2,16.6C11,63.9,15.3,69.9,21.1,70
	c5.4,0,11.1-2.8,15.5-5.6c4.3-2.7,8-6.2,11.2-10.1C47.2,51.7,47.1,49.1,47.5,46.5z"/>
<path class="st1" d="M104.6,32.3c0.1-1.9-0.9-3.8-3.3-5.4c-5.1-3.4-11.6-3.6-17.5-3.2c-4.9,0.3-9.6,1.3-14.2,3.1
	C61,30.2,52.5,36.9,50.8,46.5C48.8,58,58,68.6,69.3,69.9c5.8,0.7,11.7-0.8,16.9-3.2c2.5-1.2,4.9-2.6,7.2-4.2c1.3-0.9,4.9-3,4.7-4.9
	c-0.4-3-6.7-2.7-8.7-2.4c-3,0.4-6,1.3-8.6,2.9c-0.9,0.5-1,1.1-1.9,0.4c-0.6-0.5-1.2-1-1.8-1.5c-1.1-1.1-2.1-2.3-3-3.6
	c3.5-0.4,13.1-4.3,20.6-9.3C96.1,38.8,100.3,35.1,104.6,32.3z M82.9,38.1c-0.1,0.3-0.3,0.5-1,1.2c-2.8,2.7-6.6,4.5-10.1,6.2
	c0.1-4.1,1.7-8.4,4.4-11.4c1.2-1.3,3.8-0.3,5.2,0.3C83.1,35.4,83.7,36.4,82.9,38.1z"/>
<path class="st2" d="M139.4,52.3c-1.8-7.5,3.9-14,10.4-18.6c-0.1-0.4-0.1-0.8-0.2-1.3c-1.8-9.4-14.8-9.1-22-8
	c-6.4,0.9-12.6,3.4-18.1,6.8c-5,3.1-10.1,7.1-11.6,13c-1.6,6.2,2.6,11.1,7.5,14.2c4.9,3.1,10.4,2.4,15.4-0.3c1.9-1,4-2.5,4.7-4.6
	c1-3-2.4-4.1-4.3-5.6c-2-1.6-3.5-3.7-2.8-6.4c0.6-2.3,2.8-3.8,4.7-4.9c1.6-0.7,2.5-1.1,3.9-1.1c0.6,0,1,0.1,1.4,0.6
	c1.3,1.7,1.1,5.4,0.8,7.6c-0.4,3-1.2,6.2-2.3,9c-3,6.1-6.4,12.2-10.9,17.3c-1.4-1.6-2.3-4.2-4.4-5.1c-1.9-0.7-4.1-0.5-6-0.2
	c-3.8,0.6-8.5,2-10.9,5.2C91.7,74,97.1,79,100.2,81c3.7,2.4,8.2,3.1,12.6,2.6c10-1.1,17.8-7.4,23.9-14.9c2.3-2.8,4.5-5.9,6.5-9.2
	C141.4,57.3,140.1,54.9,139.4,52.3z"/>
<path class="st3" d="M198.8,25.4c-5.1-1.5-11.9,0.1-16.1,3.2c-1.2,0.9-3.2,2.5-2.9,4.2c0.3,1.8,3,1.5,3.7,3.2c2.3,5.6-1,13-4,17.7
	c-0.8,1.2-1.6,2.4-2.6,3.5c-1,1.2-1.1,1.9-2.6,1.2c-2.5-1.2-4.7-2.9-6.5-4.9c-3.1-3.4-5.8-8.7-3-13.1c2.6-4,6.7-5.8,10.8-8
	c1.5-0.8,3.4-1.8,4.3-3.4c1.1-2-1.2-3.3-2.9-3.7c-4.9-1.2-10.3,1.1-14.6,3.1c-8.4,3.9-22.4,12.7-19.7,23.9
	c2.1,8.8,12.4,15.4,20.8,16.9c11.2,2,22.8-3,30.6-10.8c6.2-6.1,11.6-15.3,11.1-24.4C205,30,202.8,26.6,198.8,25.4z"/>
<path class="st3" d="M183.5,21.9c21.8,3.7,22.7-21.7,22.7-21.7C182.3,6.2,183.5,21.9,183.5,21.9z"/>
<g>
	<path class="st4" d="M209,32.3v-3.1h-1.1v-0.7h3.1v0.7h-1.2v3.1H209z"/>
	<path class="st4" d="M211.5,32.3v-3.9h1.1l0.9,2.8h0l0.8-2.8h1.1v3.9h-0.8v-2.6h0c-0.1,0.3-0.1,0.6-0.2,0.9l-0.6,1.8H213l-0.6-1.8
		c-0.1-0.3-0.1-0.5-0.2-0.9h0v2.7H211.5z"/>
</g>
<path class="st4" d="M143.6,80.8c0,0-0.1,0-0.1,0c-0.1,0-0.2,0.1-0.5,0.2c-0.3,0.1-0.5,0.2-0.7,0.3c-0.2,0.1-0.5,0.1-0.9,0.1
	c-0.6,0-1-0.1-1.4-0.4c-0.3-0.3-0.5-0.7-0.5-1.3c0-0.3,0-0.5,0.1-0.9c0.1-0.6,0.3-1,0.7-1.4c0.3-0.3,0.7-0.6,1.2-0.7
	c-0.1,0.2-0.1,0.5-0.1,0.7c0,0.4,0.1,0.8,0.4,1.1c0.3,0.3,0.7,0.4,1.2,0.4c0.5,0,0.9-0.1,1.2-0.4c0.3-0.3,0.4-0.6,0.4-1
	c0-0.4-0.1-0.7-0.4-1.1c-0.3-0.3-0.6-0.6-1.1-0.8c-0.5-0.2-1.1-0.3-1.7-0.3c-1.3,0-2.5,0.3-3.5,1c-1,0.7-1.6,1.7-1.9,3
	c-0.1,0.4-0.1,0.8-0.1,1.1c0,0.7,0.2,1.3,0.5,1.8c0.3,0.5,0.8,0.9,1.4,1.2c0.6,0.3,1.3,0.4,2,0.4c0.7,0,1.4-0.1,2-0.4
	c0.6-0.3,1-0.7,1.4-1.1c0.3-0.4,0.5-0.8,0.5-1.2C143.7,80.9,143.7,80.8,143.6,80.8z"/>
<path class="st4" d="M164.5,76.1c-0.7-0.6-1.7-0.9-3.2-0.9c-0.9,0-1.8,0.2-2.6,0.5c-0.8,0.4-1.5,0.9-2.1,1.5
	c-0.6,0.6-0.9,1.4-1.1,2.2c-0.1,0.4-0.1,0.8-0.1,1.1c0,1,0.4,1.7,1.1,2.3c0.7,0.6,1.8,0.9,3.3,0.9c0.9,0,1.8-0.2,2.6-0.5
	c0.8-0.4,1.5-0.9,2-1.5c0.5-0.6,0.9-1.4,1.1-2.3c0.1-0.4,0.1-0.7,0.1-1.1C165.5,77.5,165.2,76.7,164.5,76.1z M161.2,79.5
	c-0.4,1.2-0.7,1.9-0.9,2.3c-0.2,0.4-0.5,0.6-0.7,0.6c-0.1,0-0.2,0-0.3-0.1c-0.1-0.1-0.1-0.2-0.1-0.5c0-0.4,0.2-1.2,0.5-2.3
	c0.3-1.1,0.6-1.8,0.9-2.2c0.2-0.4,0.5-0.6,0.7-0.6c0.1,0,0.2,0,0.3,0.1c0.1,0.1,0.1,0.2,0.1,0.5C161.7,77.7,161.5,78.5,161.2,79.5z"
	/>
<path class="st4" d="M152.8,75.3c-0.5,0-1,0.1-1.5,0.3c-0.5,0.2-0.9,0.6-1.3,1.1l0.9-2.8c0.1-0.2,0.1-0.4,0.1-0.7
	c0-0.4-0.1-0.7-0.4-0.9c-0.3-0.2-0.7-0.3-1.4-0.3c-0.7,0-1.3,0.1-1.9,0.3c-0.6,0.2-0.9,0.4-1,0.6c0,0.1,0,0.2,0,0.3
	c0,0.1,0.1,0.1,0.2,0.2c0.1,0.1,0.2,0.1,0.2,0.2c0.1,0.1,0.1,0.2,0.1,0.3c0,0.1,0,0.1,0,0.2l-2.4,7.9c-0.1,0.3-0.2,0.4-0.3,0.6
	c-0.1,0.1-0.2,0.2-0.4,0.3c-0.2,0.1-0.3,0.2-0.3,0.3c0,0.1,0,0.3,0.1,0.4c0.1,0.1,0.3,0.1,0.6,0.1h3.6c0.3,0,0.6,0,0.7-0.1
	c0.2-0.1,0.3-0.2,0.3-0.3c0-0.1,0-0.1,0-0.2c0,0-0.1-0.1-0.2-0.2c-0.1-0.1-0.2-0.1-0.2-0.2c-0.1-0.1-0.1-0.2-0.1-0.3
	c0-0.1,0-0.2,0-0.3l1-3.2v0c0.1-0.4,0.3-0.7,0.5-0.9c0.2-0.2,0.4-0.3,0.6-0.3c0.1,0,0.2,0,0.3,0.1c0.1,0.1,0.1,0.2,0.1,0.3
	c0,0.1,0,0.2-0.1,0.3l-0.9,2.3c-0.2,0.5-0.3,0.9-0.3,1.3c0,0.5,0.2,1,0.6,1.3c0.4,0.3,1,0.5,1.7,0.5c0.6,0,1.1-0.1,1.5-0.3
	c0.4-0.2,0.7-0.4,0.9-0.7c0.2-0.3,0.3-0.6,0.3-0.9c0-0.1,0-0.2,0-0.2c0-0.1-0.1-0.1-0.1-0.1c0,0-0.1,0.1-0.2,0.2
	c-0.1,0.1-0.2,0.2-0.3,0.2c-0.1,0-0.1,0-0.2-0.1c0,0-0.1-0.1-0.1-0.2c0-0.1,0-0.1,0-0.2l1-3.1c0.1-0.3,0.2-0.6,0.2-1
	c0-0.6-0.2-1.1-0.6-1.5C154,75.5,153.5,75.3,152.8,75.3z"/>
<path class="st4" d="M171.6,78.4c0.3,0.3,0.7,0.4,1.2,0.4c0.5,0,0.9-0.1,1.2-0.4c0.3-0.3,0.4-0.6,0.4-1c0-0.4-0.1-0.7-0.4-1.1
	c-0.3-0.3-0.6-0.6-1.1-0.8c-0.5-0.2-1.1-0.3-1.7-0.3c-1.3,0-2.5,0.3-3.5,1c-1,0.7-1.6,1.7-1.9,3c-0.1,0.4-0.1,0.8-0.1,1.1
	c0,0.7,0.2,1.3,0.5,1.8c0.3,0.5,0.8,0.9,1.4,1.2c0.6,0.3,1.3,0.4,2,0.4c0.7,0,1.4-0.1,2-0.4c0.6-0.3,1-0.7,1.4-1.1
	c0.3-0.4,0.5-0.8,0.5-1.2c0-0.1,0-0.1,0-0.2c0,0-0.1,0-0.1,0c-0.1,0-0.2,0.1-0.5,0.2c-0.3,0.1-0.5,0.2-0.7,0.3
	c-0.2,0.1-0.5,0.1-0.9,0.1c-0.6,0-1-0.1-1.4-0.4c-0.3-0.3-0.5-0.7-0.5-1.3c0-0.3,0-0.5,0.1-0.9c0.1-0.6,0.3-1,0.7-1.4
	c0.3-0.3,0.7-0.6,1.2-0.7c-0.1,0.2-0.1,0.5-0.1,0.7C171.2,77.7,171.3,78.1,171.6,78.4z"/>
<path class="st4" d="M198.9,81.4c0,0-0.1,0.1-0.2,0.2c-0.1,0.1-0.2,0.2-0.3,0.2c-0.1,0-0.2-0.1-0.2-0.3c0-0.1,0-0.1,0-0.2l0.6-2.2
	c0.1-0.4,0.2-0.8,0.2-1.2c0-0.9-0.4-1.6-1.1-2c-0.7-0.4-1.7-0.7-2.9-0.7c-1.2,0-2.1,0.2-2.7,0.5c-0.6,0.3-0.9,0.8-0.9,1.3
	c0,0.3,0.1,0.6,0.4,0.8c0.3,0.2,0.7,0.3,1.2,0.3c0.5,0,1-0.1,1.3-0.4c0.3-0.3,0.4-0.6,0.4-1c0-0.2,0-0.4-0.1-0.5
	c0.3,0,0.6,0.1,0.7,0.2c0.2,0.1,0.2,0.3,0.3,0.6c0,0.2-0.1,0.6-0.2,1l-0.4,1c-0.8-0.3-1.7-0.4-2.6-0.4c-0.8,0-1.5,0.2-2,0.6
	c-0.6,0.4-0.9,0.9-1.1,1.6c0,0.2,0,0.3,0,0.5c0,0.4,0.1,0.7,0.3,1.1c0.2,0.3,0.5,0.6,0.8,0.8c0.4,0.2,0.8,0.3,1.4,0.3
	c0.5,0,1-0.1,1.4-0.3c0.4-0.2,0.8-0.5,1.1-0.9c0.1,0.4,0.4,0.7,0.8,0.9c0.4,0.2,0.9,0.3,1.4,0.3c0.5,0,0.9-0.1,1.3-0.3
	c0.4-0.2,0.7-0.4,0.9-0.7c0.2-0.3,0.3-0.6,0.3-0.9c0-0.1,0-0.2-0.1-0.3C199,81.5,199,81.4,198.9,81.4z M194.4,81
	c-0.1,0.2-0.2,0.4-0.4,0.5c-0.2,0.1-0.3,0.2-0.5,0.2c-0.1,0-0.3-0.1-0.3-0.2c-0.1-0.1-0.1-0.2-0.1-0.4c0-0.3,0.1-0.5,0.3-0.7
	c0.2-0.2,0.4-0.3,0.7-0.3c0.2,0,0.4,0,0.6,0L194.4,81z"/>
<path class="st4" d="M214.5,75.8c-0.6-0.4-1.6-0.6-2.9-0.6c-1.3,0-2.4,0.3-3.3,1c-0.9,0.7-1.5,1.6-1.7,2.9c-0.1,0.4-0.1,0.8-0.1,1.1
	c0,1.1,0.4,2,1.1,2.6c0.7,0.6,1.7,0.9,2.9,0.9c0.8,0,1.5-0.1,2-0.4c0.6-0.3,1-0.6,1.3-1c0.3-0.4,0.4-0.8,0.4-1.2
	c0-0.1-0.1-0.2-0.2-0.2c-0.1,0-0.3,0.1-0.6,0.2c-0.4,0.1-0.7,0.2-0.9,0.3c-0.2,0.1-0.5,0.1-0.7,0.1c-0.5,0-1-0.1-1.3-0.3
	c-0.3-0.2-0.5-0.6-0.4-1.2c0.4,0.1,0.9,0.1,1.4,0.1c1,0,1.8-0.2,2.6-0.5c0.7-0.3,1.2-0.8,1.3-1.5c0-0.2,0.1-0.4,0.1-0.6
	C215.4,76.8,215.1,76.2,214.5,75.8z M211.4,78.3c-0.2,0.4-0.6,0.6-1,0.6c-0.1,0-0.1,0-0.2,0c0.1-0.5,0.2-0.9,0.4-1.3
	c0.2-0.4,0.3-0.6,0.5-0.8c0.2-0.2,0.3-0.3,0.4-0.3c0.2,0,0.2,0.1,0.3,0.4C211.7,77.4,211.6,77.9,211.4,78.3z"/>
<path class="st4" d="M184.2,78.4c0-0.9-0.3-1.7-1-2.3c-0.7-0.6-1.7-0.9-3.2-0.9c-0.9,0-1.8,0.2-2.6,0.5c-0.8,0.4-1.5,0.9-2.1,1.5
	c-0.6,0.6-0.9,1.4-1.1,2.2c-0.1,0.4-0.1,0.8-0.1,1.1c0,1,0.4,1.7,1.1,2.3c0.7,0.6,1.8,0.9,3.3,0.9c0.9,0,1.8-0.2,2.6-0.5
	c0.8-0.4,1.5-0.9,2-1.5c0.5-0.6,0.9-1.4,1.1-2.3C184.1,79.1,184.2,78.7,184.2,78.4z M179.9,79.5c-0.4,1.2-0.7,1.9-0.9,2.3
	c-0.2,0.4-0.5,0.6-0.7,0.6c-0.1,0-0.2,0-0.3-0.1c-0.1-0.1-0.1-0.2-0.1-0.5c0-0.4,0.2-1.2,0.5-2.3c0.3-1.1,0.6-1.8,0.9-2.2
	c0.2-0.4,0.5-0.6,0.7-0.6c0.1,0,0.2,0,0.3,0.1c0.1,0.1,0.1,0.2,0.1,0.5C180.3,77.7,180.2,78.5,179.9,79.5z"/>
<path class="st4" d="M205.4,76.9h0.9c0.5,0,0.8-0.2,1-0.7c0-0.1,0-0.2,0-0.2c0-0.1-0.1-0.3-0.2-0.3c-0.1-0.1-0.3-0.1-0.5-0.1h-0.8
	l0.2-0.7c0-0.1,0.1-0.3,0.1-0.4c0-0.5-0.3-0.8-1-0.8c-0.5,0-0.8,0.1-1.1,0.2c-0.3,0.1-0.6,0.4-1,0.7l-1,1h-0.9c-0.3,0-0.5,0-0.6,0.1
	c-0.1,0.1-0.2,0.2-0.3,0.3c0,0.1,0,0.3,0,0.4c0.1,0.1,0.2,0.2,0.3,0.4c0.2,0.2,0.3,0.3,0.4,0.5c0.1,0.1,0.1,0.3,0.1,0.5
	c0,0.1,0,0.2-0.1,0.4l-1,3.1c-0.1,0.2-0.1,0.5-0.1,0.8c0,0.6,0.2,1,0.6,1.3c0.4,0.3,1,0.5,1.7,0.5c0.7,0,1.3-0.1,1.8-0.3
	c0.5-0.2,1-0.5,1.3-0.8c0.3-0.3,0.5-0.6,0.5-0.8c0-0.1,0-0.1-0.1-0.2c0,0-0.1-0.1-0.2-0.1c-0.1,0-0.2,0-0.3,0
	c-0.3,0-0.5,0.1-0.6,0.1c-0.2,0-0.3,0-0.4-0.1c-0.1-0.1-0.2-0.2-0.2-0.4c0-0.2,0-0.3,0.1-0.5L205.4,76.9z"/>
<path class="st4" d="M188.3,82.9c-0.1-0.1-0.2-0.1-0.2-0.2c-0.1-0.1-0.1-0.2-0.1-0.3c0-0.1,0-0.2,0-0.3l2.5-8.1
	c0.1-0.2,0.1-0.4,0.1-0.7c0-0.4-0.1-0.7-0.4-0.9c-0.3-0.2-0.7-0.3-1.4-0.3c-0.7,0-1.3,0.1-1.9,0.3c-0.6,0.2-0.9,0.4-1,0.6
	c0,0.1,0,0.2,0,0.3c0,0.1,0.1,0.1,0.2,0.2c0.1,0.1,0.2,0.1,0.2,0.2c0.1,0.1,0.1,0.2,0.1,0.3c0,0.1,0,0.1,0,0.2l-2.4,7.9
	c-0.1,0.3-0.2,0.4-0.3,0.6c-0.1,0.1-0.2,0.2-0.4,0.3c-0.2,0.1-0.3,0.2-0.3,0.3c0,0.1,0,0.3,0.1,0.4c0.1,0.1,0.3,0.1,0.6,0.1h3.6
	c0.3,0,0.6,0,0.7-0.1c0.2-0.1,0.3-0.2,0.3-0.3c0-0.1,0-0.1,0-0.2C188.4,83,188.3,82.9,188.3,82.9z"/>
</svg>
